<?xml version="1.0" encoding="UTF-8" standalone="no"?>
<!-- Created with Inkscape (http://www.inkscape.org/) -->

<svg
   xmlns:dc="http://purl.org/dc/elements/1.1/"
   xmlns:cc="http://creativecommons.org/ns#"
   xmlns:rdf="http://www.w3.org/1999/02/22-rdf-syntax-ns#"
   xmlns:svg="http://www.w3.org/2000/svg"
   xmlns="http://www.w3.org/2000/svg"
   xmlns:sodipodi="http://sodipodi.sourceforge.net/DTD/sodipodi-0.dtd"
   xmlns:inkscape="http://www.inkscape.org/namespaces/inkscape"
   width="448.02225"
   height="449.81421"
   id="svg3897"
   version="1.1"
   sodipodi:docname="minutes.svg"
   inkscape:version="0.48.0 r9654">
  <defs
     id="defs3899" />
  <sodipodi:namedview
     id="base"
     pagecolor="#000000"
     bordercolor="#666666"
     borderopacity="1.0"
     inkscape:pageopacity="1"
     inkscape:pageshadow="2"
     inkscape:zoom="0.99374254"
     inkscape:cx="169.40025"
     inkscape:cy="207.75498"
     inkscape:document-units="px"
     inkscape:current-layer="layer1"
     showgrid="false"
     inkscape:snap-bbox="true"
     inkscape:window-width="1304"
     inkscape:window-height="748"
     inkscape:window-x="54"
     inkscape:window-y="-8"
     inkscape:window-maximized="1"
     inkscape:snap-page="false"
     fit-margin-top="0"
     fit-margin-left="0"
     fit-margin-right="0"
     fit-margin-bottom="0"
     inkscape:snap-center="true"
     inkscape:snap-object-midpoints="true"
     showguides="true"
     inkscape:guide-bbox="true">
    <sodipodi:guide
       orientation="0,1"
       position="236.23489,224.99443"
       id="guide3060" />
    <sodipodi:guide
       orientation="1,0"
       position="224.3811,266.48271"
       id="guide3062" />
  </sodipodi:namedview>
  <metadata
     id="metadata3902">
    <rdf:RDF>
      <cc:Work
         rdf:about="">
        <dc:format>image/svg+xml</dc:format>
        <dc:type
           rdf:resource="http://purl.org/dc/dcmitype/StillImage" />
        <dc:title />
      </cc:Work>
    </rdf:RDF>
  </metadata>
  <g
     inkscape:label="Calque 1"
     inkscape:groupmode="layer"
     id="layer1"
     transform="translate(224.3811,224.84647)">
    <path
       style="font-size:medium;font-style:normal;font-variant:normal;font-weight:normal;font-stretch:normal;text-indent:0;text-align:start;text-decoration:none;line-height:normal;letter-spacing:normal;word-spacing:normal;text-transform:none;direction:ltr;block-progression:tb;writing-mode:lr-tb;text-anchor:start;baseline-shift:baseline;color:#000000;fill:#ffffff;fill-opacity:1;stroke:none;stroke-width:1;marker:none;visibility:visible;display:inline;overflow:visible;enable-background:accumulate;font-family:Sans;-inkscape-font-specification:Sans"
       d="M 224.375 45.78125 C 220.58136 45.78125 217.46216 48.580509 216.90625 52.21875 C 124.99626 56.268901 51.71875 132.0294 51.71875 224.9375 C 51.71875 320.44107 129.15268 397.875 224.65625 397.875 C 320.15982 397.875 397.5625 320.44107 397.5625 224.9375 C 397.5625 131.84058 324.01468 55.984765 231.84375 52.21875 C 231.28702 48.581453 228.16797 45.78125 224.375 45.78125 z M 231.96875 53.1875 C 323.53527 57.019841 396.5625 132.42622 396.5625 224.9375 C 396.5625 319.90063 319.61938 396.875 224.65625 396.875 C 129.69312 396.875 52.71875 319.90063 52.71875 224.9375 C 52.71875 132.60527 125.49341 57.319995 216.8125 53.21875 C 216.81145 53.27074 216.8125 53.322758 216.8125 53.375 C 216.8125 57.561081 220.18892 60.9375 224.375 60.9375 C 228.56108 60.9375 231.96875 57.561081 231.96875 53.375 C 231.96875 53.312608 231.97025 53.249531 231.96875 53.1875 z "
       id="path2985"
       transform="translate(-224.3811,-224.84647)" />
  </g>
</svg>
